<?xml version="1.0" encoding="utf-8"?>
<!-- Generator: Adobe Illustrator 25.2.0, SVG Export Plug-In . SVG Version: 6.00 Build 0)  -->
<svg version="1.1" id="Layer_1" xmlns="http://www.w3.org/2000/svg" xmlns:xlink="http://www.w3.org/1999/xlink" x="0px" y="0px"
	 viewBox="0 0 612 792" style="enable-background:new 0 0 612 792;" xml:space="preserve">
<style type="text/css">
	.st0{stroke:#000000;stroke-miterlimit:10;}
	.st1{fill:#FFFFFF;stroke:#000000;stroke-miterlimit:10;}
</style>
<polygon class="st0" points="121.79,265.79 308.86,423.29 275.43,450.93 121.79,322.36 "/>
<polygon class="st0" points="121.79,355.14 170.64,393.07 121.79,465.07 "/>
<polygon class="st1" points="182.08,399.45 81.29,547.36 146.21,547.36 225.32,433.42 "/>
<polygon class="st0" points="170.64,547.36 170.64,522.29 152.64,547.36 "/>
<polygon class="st1" points="222.71,339.07 273.5,265.79 372.5,410.11 372.5,504.29 273.62,364.15 263.86,375.07 "/>
<polygon class="st0" points="333.93,344.86 427.79,265.79 427.79,547.36 377.64,547.36 376.36,368.64 359,381.5 "/>
<path class="st1" d="M56.86,243.93"/>
<polygon class="st1" points="431.32,496.89 431.32,547.36 464.75,547.36 "/>
</svg>
